{"title":"Skylar Grey - Cmon Let Me Ride (Ft. Eminem) {M4A+MP4} (1080p) x2","uid":7929122,"size":50185290,"categoryP":"video","categoryS":"music_videos","magnet":"?xt=urn:btih:c0c14cdb1d0a50d7d40566e0f6b4bf54110a29a6&amp;dn=Skylar+Grey+-+Cmon+Let+Me+Ride+%28Ft.+Eminem%29+%7BM4A%2BMP4%7D+%281080p%29+x2&amp;tr=udp%3A%2F%2Ftracker.openbittorrent.com%3A80&amp;tr=udp%3A%2F%2Fopen.demonii.com%3A1337&amp;tr=udp%3A%2F%2Ftracker.coppersurfer.tk%3A6969&amp;tr=udp%3A%2F%2Fexodus.desync.com%3A6969","seeders":1,"leechers":0,"uploader":"Vitamin_X","files":-1,"time":1355674773,"description":" &lt;a href=&quot;http://www.shotpix.com/images/94381348823059920626.jpg&quot; rel=&quot;nofollow&quot; target=&quot;_NEW&quot;&gt;http://www.shotpix.com/images/94381348823059920626.jpg&lt;/a&gt;\n\n\nSkylar Grey - Cmon Let Me Ride (Ft. Eminem) {M4A+MP4} (1080p) x264 [VX] [P2PDL]\n\n\n                            1080p Full HD MP4 Video\n                                      +\n                             128 Kbps/VBR M4A Audio\n\nGeneral\nComplete name                  : Skylar Grey - C'mon Let Me Ride (Ft. Eminem) (1080p) x264 [VX] [P2PDL].mp4\nFormat                         : MPEG-4\nFormat profile                 : Base Media / Version 2\nCodec ID                       : mp42\nFile size                      : 43.5 MiB\nDuration                       : 3mn 40s\n\nVideo\nID                             : 1\nFormat                         : AVC\nFormat/Info                    : Advanced Video Codec\nWidth                          : 1 920 pixels\nHeight                         : 1 080 pixels\nDisplay aspect ratio           : 16:9\nFrame rate mode                : Constant\nFrame rate                     : 24.000 fps\nColor space                    : YUV\nChroma subsampling             : 4:2:0\nBit depth                      : 8 bits\nScan type                      : Progressive\nBits/(Pixel*Frame)             : 0.031\nStream size                    : 40.0 MiB (92%)\nWriting library                : x264 core 128\n\nAudio\nID                             : 2\nFormat                         : AAC\nFormat/Info                    : Advanced Audio Codec\nFormat profile                 : LC\nCodec ID                       : 40\nDuration                       : 3mn 40s\nBit rate mode                  : Variable\nBit rate                       : 128 Kbps\nMaximum bit rate               : 178 Kbps\nChannel(s)                     : 2 channels\nChannel positions              : Front: L R\nSampling rate                  : 48.0 KHz\nCompression mode               : Lossy\nStream size                    : 3.36 MiB (8%)\n\n\nSubtitles                      : No\n\nScreens:\n &lt;a href=&quot;\nhttp://www.shotpix.com/images/92163371926656595588.jpg&quot; rel=&quot;nofollow&quot; target=&quot;_NEW&quot;&gt;\nhttp://www.shotpix.com/images/92163371926656595588.jpg&lt;/a&gt; &lt;a href=&quot;\nhttp://www.shotpix.com/images/75689944516142847023.jpg&quot; rel=&quot;nofollow&quot; target=&quot;_NEW&quot;&gt;\nhttp://www.shotpix.com/images/75689944516142847023.jpg&lt;/a&gt;\n\nThumbs:\n &lt;a href=&quot;\nhttp://www.shotpix.com/images/70680144288202591732.jpg&quot; rel=&quot;nofollow&quot; target=&quot;_NEW&quot;&gt;\nhttp://www.shotpix.com/images/70680144288202591732.jpg&lt;/a&gt;\n\n------------------------------------------------------------------------\n\nNotes:\n\n* Recommended to use latest version VLC Media Player.\n* Install shark007 codecs in case of any kind of problem in playback (For non-VLC Media Player users).\n* Alternatively, install Core AVC codecs, the fastest decoder that there is coupled with Community Center Codec Pack and play on Windows Media Player Classic.\n\nGreets to: VYTO, a2zRG, staff members at ExtraTorrent, TPB,KAT, 1337x, PublicHD, Ahashare, TorrentMafia, BTScene, P2PDL, and all others\n\nEncoder Notes: Looking For Early Access To Anything You Can Provide DVDScr, R5, DVDRips, BluRay, Direct Audio, Early Music\nReleases, Seedboxes, Links, Dedicated Servers anything u can provide, Advance / Promo CDs/DVDs. If You Got anything to\noffer contact me at &quot;&lt;a class=&quot;__cf_email__&quot; href=&quot;/cdn-cgi/l/email-protection&quot; data-cfemail=&quot;d6a6a4b196bea3a5bef8b5b9bb&quot;&gt;[email&amp;#160;protected]&lt;/a&gt;&lt;script cf-hash='f9e31' type=&quot;text/javascript&quot;&gt;\n/* &lt;![CDATA[ */!function(){try{var t=&quot;currentScript&quot;in document?document.currentScript:function(){for(var t=document.getElementsByTagName(&quot;script&quot;),e=t.length;e--;)if(t[e].getAttribute(&quot;cf-hash&quot;))return t[e]}();if(t&amp;&amp;t.previousSibling){var e,r,n,i,c=t.previousSibling,a=c.getAttribute(&quot;data-cfemail&quot;);if(a){for(e=&quot;&quot;,r=parseInt(a.substr(0,2),16),n=2;a.length-n;n+=2)i=parseInt(a.substr(n,2),16)^r,e+=String.fromCharCode(i);e=document.createTextNode(e),c.parentNode.replaceChild(e,c)}}}catch(u){}}();/* ]]&gt; */&lt;/script&gt;&quot;\n\nFacebook Fan Page: www . facebook . com / p2pdl","torrent":{"xt":"urn:btih:c0c14cdb1d0a50d7d40566e0f6b4bf54110a29a6","amp;dn":"Skylar+Grey+-+Cmon+Let+Me+Ride+%28Ft.+Eminem%29+%7BM4A%2BMP4%7D+%281080p%29+x2","amp;tr":["udp%3A%2F%2Ftracker.openbittorrent.com%3A80","udp%3A%2F%2Fopen.demonii.com%3A1337","udp%3A%2F%2Ftracker.coppersurfer.tk%3A6969","udp%3A%2F%2Fexodus.desync.com%3A6969"],"infoHash":"c0c14cdb1d0a50d7d40566e0f6b4bf54110a29a6","infoHashBuffer":{"type":"Buffer","data":[192,193,76,219,29,10,80,215,212,5,102,224,246,180,191,84,17,10,41,166]},"announce":[],"urlList":[]}}